<svg id="Layer_1" data-name="Layer 1" xmlns="http://www.w3.org/2000/svg" viewBox="0 0 36.43 44.99"><defs><style>.cls-1{fill:#3e2b1b;}.cls-2{fill:#f2bf80;}.cls-3{fill:#010000;}</style></defs><title>potato-logo</title><g id="_25rf1E.tif" data-name="25rf1E.tif"><path class="cls-1" d="M24.79,2a.09.09,0,0,0,.09.09c.92.1,1.81.29,2.72.46a29.36,29.36,0,0,1,3.77.86,12.23,12.23,0,0,1,2.3.94,12.38,12.38,0,0,1,2.22,1.55A14,14,0,0,1,38,8.32a22,22,0,0,1,1.7,2.88A32.19,32.19,0,0,1,41,14.3q.43,1.16.78,2.36c.16.54.32,1.08.47,1.63A34.64,34.64,0,0,1,43,21.86c.15.89.26,1.79.32,2.69,0,.07,0,.16.08.19v.5a.45.45,0,0,0,0,.36v2.55a.43.43,0,0,0,0,.36V29c-.07,0-.08.08-.08.14A26.22,26.22,0,0,1,43,32a22,22,0,0,1-1,3.39,18.77,18.77,0,0,1-.94,2.13,17.87,17.87,0,0,1-1.88,2.95,16.23,16.23,0,0,1-2.79,2.79,15.9,15.9,0,0,1-3.31,2A17.86,17.86,0,0,1,29,46.61a22.48,22.48,0,0,1-2.55.35,7.66,7.66,0,0,0-1,.07h-2c-.4-.06-.8,0-1.19-.1a21.23,21.23,0,0,1-2.82-.49,20.23,20.23,0,0,1-2-.63,16.78,16.78,0,0,1-3-1.49,15.72,15.72,0,0,1-2.42-1.88,14.63,14.63,0,0,1-1.74-2,16.13,16.13,0,0,1-1.27-2A15.25,15.25,0,0,1,8,36.41,14.9,14.9,0,0,1,7.15,33c0-.16,0-.36-.13-.5v-2.9c.18-.11.1-.3.12-.45.16-1.27.35-2.53.62-3.79a25.84,25.84,0,0,1,1.35-4.45,14,14,0,0,1,1.08-2.13c.16-.25,0-.49,0-.72a29.26,29.26,0,0,1,0-4,14.19,14.19,0,0,1,.57-3.24A12.75,12.75,0,0,1,11.43,9a17.77,17.77,0,0,1,1-2A8.94,8.94,0,0,1,15.07,4.5a14.21,14.21,0,0,1,4.11-1.89,13.08,13.08,0,0,1,2.41-.48c.07,0,.14,0,.16-.09ZM14.52,15.58l-.1.06a7.64,7.64,0,0,0-2.94,2.45,15.26,15.26,0,0,0-2.33,4.68A33.72,33.72,0,0,0,7.83,29.2a14.64,14.64,0,0,0,.25,5.13,14.9,14.9,0,0,0,5,8.19,15.67,15.67,0,0,0,7,3.34,22.07,22.07,0,0,0,7.3.26,17.08,17.08,0,0,0,7.83-2.92,16.5,16.5,0,0,0,5.48-6.6,21.94,21.94,0,0,0,2-8.11,28,28,0,0,0-.38-6.7,38.68,38.68,0,0,0-3.54-10.92,16.17,16.17,0,0,0-2.41-3.52,12.07,12.07,0,0,0-6.19-3.55c-1.45-.37-2.92-.61-4.39-.89A13.45,13.45,0,0,0,22,2.73a14.17,14.17,0,0,0-6.26,2.09,8.2,8.2,0,0,0-3.1,3.1,16.11,16.11,0,0,0-1.69,4.71,20.65,20.65,0,0,0-.22,4.47,4,4,0,0,0,.07.87A5.53,5.53,0,0,1,14.52,15.58Z" transform="translate(-7.02 -2.04)"/><path class="cls-2" d="M14.52,15.58A5.53,5.53,0,0,0,10.75,18a4,4,0,0,1-.07-.87,20.65,20.65,0,0,1,.22-4.47A16.11,16.11,0,0,1,12.6,7.91a8.2,8.2,0,0,1,3.1-3.1A14.17,14.17,0,0,1,22,2.73a13.45,13.45,0,0,1,3.81.19c1.47.28,2.94.53,4.39.89a12.07,12.07,0,0,1,6.19,3.55,16.17,16.17,0,0,1,2.41,3.52A38.68,38.68,0,0,1,42.3,21.8a28,28,0,0,1,.38,6.7,21.94,21.94,0,0,1-2,8.11,16.5,16.5,0,0,1-5.48,6.6,17.08,17.08,0,0,1-7.83,2.92,22.07,22.07,0,0,1-7.3-.26,15.67,15.67,0,0,1-7-3.34,14.9,14.9,0,0,1-5-8.19,14.64,14.64,0,0,1-.25-5.13,33.72,33.72,0,0,1,1.32-6.44,15.26,15.26,0,0,1,2.33-4.68,7.64,7.64,0,0,1,2.94-2.45ZM19,17a1,1,0,0,1,1.15.13,1,1,0,0,1-.78,1.8,1,1,0,0,1-.66-.32,1.09,1.09,0,0,1-.29-.67c-.11.06-.1.15-.11.23a2.07,2.07,0,1,0,.78-1.34s-.16.06-.09.17,0,0,0,0v0Zm12.31-2.28.17-.07a1,1,0,1,1-.59,1.18c0-.1,0-.2-.06-.32-.09.09-.07.19-.08.28a2,2,0,0,0,.92,2.11,2,2,0,0,0,2.26,0,2,2,0,0,0,.85-2.16,1.94,1.94,0,0,0-1.47-1.54,1.92,1.92,0,0,0-2,.56h0Zm-3.68,9a1.76,1.76,0,0,0,1.44-.78,7.8,7.8,0,0,0,1.28-3.16c0-.13,0-.14-.14-.12l-.71.15-5.25,1.06c-.09,0-.26,0-.12.17a8.84,8.84,0,0,0,2.21,2.24A2.31,2.31,0,0,0,27.63,23.72ZM12.21,38a.69.69,0,0,0-.71.69.7.7,0,1,0,1.39,0A.69.69,0,0,0,12.21,38ZM11,36a.65.65,0,0,0,.66-.63A.65.65,0,1,0,11,36Zm2.43,2.65a.45.45,0,0,0,.43.48.47.47,0,0,0,.47-.42.46.46,0,0,0-.43-.48A.44.44,0,0,0,13.41,38.62Zm-2.73-6.31a.39.39,0,1,0-.79,0,.39.39,0,0,0,.39.39A.4.4,0,0,0,10.67,32.31Zm.68,1.56a.38.38,0,1,0-.38-.39A.38.38,0,0,0,11.36,33.87Zm-.42,3a.33.33,0,0,0-.33.33.33.33,0,0,0,.65,0A.33.33,0,0,0,10.94,36.85Zm2.8,3.86c0-.15-.1-.28-.28-.28a.29.29,0,0,0-.31.29.3.3,0,1,0,.59,0Zm-3.52-7.61a.21.21,0,0,0-.19.21.2.2,0,0,0,.21.21.19.19,0,0,0,.2-.23C10.43,33.16,10.34,33.11,10.22,33.09Zm2.93,4.34c.1,0,.19-.06.19-.18a.18.18,0,0,0-.19-.2.17.17,0,0,0-.19.19C13,37.35,13,37.41,13.14,37.43Z" transform="translate(-7.02 -2.04)"/><path class="cls-3" d="M43.45,28.15v.36A.43.43,0,0,1,43.45,28.15Z" transform="translate(-7.02 -2.04)"/><path class="cls-3" d="M43.45,25.24v.36A.45.45,0,0,1,43.45,25.24Z" transform="translate(-7.02 -2.04)"/><path class="cls-1" d="M27.63,23.72a2.31,2.31,0,0,1-1.29-.43A8.84,8.84,0,0,1,24.13,21c-.13-.18,0-.16.12-.17l5.25-1.06.71-.15c.1,0,.17,0,.14.12a7.8,7.8,0,0,1-1.28,3.16A1.76,1.76,0,0,1,27.63,23.72Z" transform="translate(-7.02 -2.04)"/><path class="cls-1" d="M31.31,14.69a1.92,1.92,0,0,1,2-.56,1.94,1.94,0,0,1,1.47,1.54,2,2,0,0,1-.85,2.16,2,2,0,0,1-2.26,0,2,2,0,0,1-.92-2.11c0-.08,0-.18.08-.28,0,.12,0,.22.06.32a1,1,0,1,0,.59-1.18l-.17.07Z" transform="translate(-7.02 -2.04)"/><path class="cls-1" d="M19,17c-.06-.11,0-.13.09-.17a2.06,2.06,0,1,1-.78,1.34c0-.08,0-.17.11-.23a1.09,1.09,0,0,0,.29.67,1,1,0,0,0,.66.32,1,1,0,0,0,.78-1.8A1,1,0,0,0,19,17Z" transform="translate(-7.02 -2.04)"/><path class="cls-1" d="M12.21,38a.69.69,0,0,1,.68.7.7.7,0,1,1-1.39,0A.69.69,0,0,1,12.21,38Z" transform="translate(-7.02 -2.04)"/><path class="cls-1" d="M11,36a.65.65,0,1,1,.66-.63A.65.65,0,0,1,11,36Z" transform="translate(-7.02 -2.04)"/><path class="cls-1" d="M13.41,38.62a.44.44,0,0,1,.46-.42.46.46,0,0,1,.43.48.47.47,0,0,1-.47.42A.45.45,0,0,1,13.41,38.62Z" transform="translate(-7.02 -2.04)"/><path class="cls-1" d="M10.67,32.31a.4.4,0,0,1-.4.4.39.39,0,0,1,0-.79A.4.4,0,0,1,10.67,32.31Z" transform="translate(-7.02 -2.04)"/><path class="cls-1" d="M11.36,33.87a.38.38,0,0,1-.38-.39.37.37,0,0,1,.39-.36.38.38,0,1,1,0,.75Z" transform="translate(-7.02 -2.04)"/><path class="cls-1" d="M10.94,36.85a.33.33,0,0,1,.32.34.33.33,0,0,1-.65,0A.33.33,0,0,1,10.94,36.85Z" transform="translate(-7.02 -2.04)"/><path class="cls-1" d="M13.74,40.7a.3.3,0,1,1-.59,0,.29.29,0,0,1,.31-.29C13.64,40.43,13.71,40.55,13.74,40.7Z" transform="translate(-7.02 -2.04)"/><path class="cls-1" d="M10.22,33.09c.12,0,.21.06.22.19a.19.19,0,0,1-.2.23A.2.2,0,0,1,10,33.3.21.21,0,0,1,10.22,33.09Z" transform="translate(-7.02 -2.04)"/><path class="cls-1" d="M13.14,37.43c-.12,0-.19-.08-.19-.2a.17.17,0,0,1,.19-.19.18.18,0,0,1,.19.2C13.33,37.37,13.24,37.41,13.14,37.43Z" transform="translate(-7.02 -2.04)"/><path class="cls-1" d="M19,17h-.06v0s0,0,0,0Z" transform="translate(-7.02 -2.04)"/><polygon class="cls-1" points="24.29 12.65 24.28 12.65 24.29 12.65 24.29 12.65"/></g></svg>